<?xml version="1.0" encoding="utf-8"?>
<!-- Generator: Adobe Illustrator 21.1.0, SVG Export Plug-In . SVG Version: 6.00 Build 0)  -->
<svg version="1.1" id="Layer_1" xmlns="http://www.w3.org/2000/svg" xmlns:xlink="http://www.w3.org/1999/xlink" x="0px" y="0px"
	 width="18px" height="18px" viewBox="0 0 18 18" style="enable-background:new 0 0 18 18;" xml:space="preserve">
<style type="text/css">
	.st0{fill:#FFFFFF;}
</style>
<path class="st0" d="M3.9,9.3l9-9c0.4-0.3,0.9-0.3,1.3,0l3.6,3.6c0.3,0.4,0.3,0.9,0,1.3l-9,9c-0.2,0.2-0.4,0.3-0.6,0.3H4.5
	c-0.5,0-0.9-0.4-0.9-0.9V9.9C3.6,9.7,3.7,9.4,3.9,9.3z M5.4,12.6h2.3l8.1-8.1l-2.3-2.3l-8.1,8.1V12.6z M14.4,10.8
	c0-0.5,0.4-0.9,0.9-0.9c0.5,0,0.9,0.4,0.9,0.9v5.4c0,1-0.8,1.8-1.8,1.8H1.8c-1,0-1.8-0.8-1.8-1.8V3.6c0-1,0.8-1.8,1.8-1.8h5.4
	c0.5,0,0.9,0.4,0.9,0.9S7.7,3.6,7.2,3.6H1.8v12.6h12.6V10.8z"/>
</svg>
